<?xml version="1.0" encoding="UTF-8"?>
<svg xmlns="http://www.w3.org/2000/svg" version="1.1" width="300" height="300" viewBox="0 0 300 300"><rect x="0" y="0" width="300" height="300" fill="#ffffff"/><g transform="scale(10.345)"><g transform="translate(0,0)"><path fill-rule="evenodd" d="M8 0L8 1L9 1L9 2L8 2L8 5L9 5L9 4L11 4L11 5L10 5L10 10L9 10L9 8L8 8L8 9L7 9L7 8L6 8L6 9L7 9L7 10L5 10L5 9L4 9L4 8L0 8L0 12L2 12L2 11L3 11L3 10L2 10L2 11L1 11L1 9L4 9L4 11L5 11L5 12L6 12L6 13L5 13L5 15L7 15L7 14L6 14L6 13L7 13L7 12L6 12L6 11L8 11L8 12L9 12L9 13L8 13L8 15L9 15L9 16L4 16L4 18L5 18L5 19L3 19L3 18L2 18L2 17L3 17L3 15L4 15L4 12L3 12L3 14L1 14L1 13L0 13L0 16L1 16L1 18L0 18L0 19L1 19L1 18L2 18L2 20L1 20L1 21L7 21L7 20L9 20L9 21L8 21L8 22L9 22L9 23L10 23L10 24L9 24L9 25L8 25L8 29L9 29L9 28L10 28L10 26L12 26L12 28L11 28L11 29L12 29L12 28L14 28L14 27L15 27L15 28L16 28L16 29L17 29L17 27L15 27L15 26L18 26L18 27L19 27L19 28L20 28L20 29L21 29L21 28L24 28L24 29L25 29L25 27L27 27L27 29L28 29L28 27L29 27L29 25L28 25L28 27L27 27L27 24L26 24L26 26L25 26L25 23L28 23L28 24L29 24L29 23L28 23L28 22L29 22L29 19L26 19L26 18L27 18L27 17L28 17L28 15L29 15L29 13L28 13L28 11L27 11L27 10L26 10L26 11L27 11L27 12L26 12L26 14L25 14L25 15L23 15L23 19L25 19L25 20L19 20L19 18L17 18L17 14L18 14L18 17L21 17L21 18L22 18L22 17L21 17L21 15L22 15L22 14L24 14L24 12L25 12L25 11L24 11L24 12L23 12L23 13L22 13L22 12L20 12L20 11L22 11L22 10L25 10L25 9L27 9L27 8L24 8L24 9L22 9L22 8L19 8L19 6L20 6L20 7L21 7L21 6L20 6L20 5L21 5L21 3L20 3L20 2L21 2L21 0L18 0L18 1L16 1L16 0L15 0L15 1L16 1L16 2L19 2L19 3L14 3L14 5L13 5L13 3L12 3L12 4L11 4L11 2L14 2L14 0L12 0L12 1L11 1L11 0L10 0L10 1L9 1L9 0ZM19 1L19 2L20 2L20 1ZM16 4L16 5L14 5L14 6L13 6L13 5L12 5L12 6L11 6L11 8L12 8L12 6L13 6L13 8L14 8L14 9L15 9L15 10L14 10L14 11L11 11L11 13L10 13L10 14L9 14L9 15L10 15L10 14L11 14L11 13L12 13L12 12L13 12L13 14L12 14L12 16L9 16L9 17L8 17L8 18L7 18L7 17L6 17L6 18L7 18L7 19L6 19L6 20L7 20L7 19L9 19L9 20L10 20L10 19L9 19L9 18L11 18L11 19L12 19L12 20L11 20L11 21L10 21L10 22L11 22L11 23L14 23L14 22L15 22L15 24L12 24L12 26L13 26L13 27L14 27L14 26L15 26L15 24L16 24L16 25L17 25L17 24L18 24L18 26L20 26L20 27L21 27L21 26L22 26L22 27L23 27L23 25L20 25L20 24L18 24L18 23L17 23L17 22L18 22L18 21L17 21L17 22L16 22L16 19L15 19L15 21L13 21L13 18L14 18L14 15L16 15L16 14L17 14L17 13L16 13L16 14L14 14L14 12L15 12L15 11L16 11L16 12L18 12L18 11L20 11L20 10L21 10L21 9L20 9L20 10L18 10L18 9L17 9L17 8L16 8L16 6L17 6L17 7L18 7L18 5L19 5L19 4ZM8 6L8 7L9 7L9 6ZM14 6L14 7L15 7L15 6ZM28 8L28 10L29 10L29 8ZM11 9L11 10L12 10L12 9ZM8 10L8 11L9 11L9 10ZM17 10L17 11L18 11L18 10ZM21 13L21 14L22 14L22 13ZM27 13L27 14L28 14L28 13ZM13 14L13 15L14 15L14 14ZM19 15L19 16L20 16L20 15ZM25 15L25 16L26 16L26 17L27 17L27 15ZM12 16L12 17L13 17L13 16ZM15 16L15 17L16 17L16 16ZM24 17L24 18L25 18L25 17ZM27 20L27 21L26 21L26 22L27 22L27 21L28 21L28 20ZM21 21L21 24L24 24L24 21ZM22 22L22 23L23 23L23 22ZM10 24L10 25L9 25L9 26L10 26L10 25L11 25L11 24ZM13 25L13 26L14 26L14 25ZM24 26L24 27L25 27L25 26ZM0 0L0 7L7 7L7 0ZM1 1L1 6L6 6L6 1ZM2 2L2 5L5 5L5 2ZM22 0L22 7L29 7L29 0ZM23 1L23 6L28 6L28 1ZM24 2L24 5L27 5L27 2ZM0 22L0 29L7 29L7 22ZM1 23L1 28L6 28L6 23ZM2 24L2 27L5 27L5 24Z" fill="#000000"/></g></g></svg>
